<svg xmlns="http://www.w3.org/2000/svg" viewBox="0 0 566.93 460" x="0px" y="0px"><title>GreyGoldFish Logo</title><g><path d="M256.979,451.9q-5.572,0-11.277-.33c-38.039-2.2-69.618-14.716-82.392-21.713-7.145-.538-33.632-3.985-54.151-25.867-17.779-18.959-26.04-46.217-24.554-81.015a6.751,6.751,0,0,1,10.1-5.57,138.354,138.354,0,0,1,33.216,28.28c.474-17.286,4.926-39.382,21.236-57.149a6.75,6.75,0,0,1,11.722,4.458c.252,15.727,3.061,40.819,8.515,47.364,12.252,14.7,23.364,37.125,19.354,56.854,14.414-1.152,43.629-8.721,62.048-49.024l-.041.033c-16.567,13.521-28.294,18.429-36.9,15.432-16.283-5.663-36.141-44.755-39.956-52.533a6.751,6.751,0,0,1,1.02-7.462c15.172-17.035,43.768-23.551,65.236-26.015a48.507,48.507,0,0,1-14.455-24.516c-6.348-24.859-4.657-67.221-3.739-83.015-5.914-1.752-12.511-5.7-15.2-13.44-1.405-4.039-.6-8.53,2.405-13.349,6.756-10.845,26.665-24.7,37.373-26.014a14.621,14.621,0,0,1,11.266,3.164c3.616,2.944,5.577,7.245,6.635,10.831a155.753,155.753,0,0,1,36.2,5.375c30.861,8.357,55.963,25.6,72.592,49.861,21.249,31,33.628,70.838,33.963,109.29.276,31.789-7.575,77.756-46.546,116.222C334.116,438.236,298.451,451.9,256.979,451.9ZM98.022,336.015c.844,24.961,7.836,44.636,20.852,58.6,19.451,20.865,46.278,21.837,46.547,21.844a6.844,6.844,0,0,1,3.225.91c20.912,12.143,119.117,47.65,182.516-14.923,59.539-58.768,50.069-151.168,10.932-208.271-35.863-52.326-102.166-49.393-102.831-49.356a6.766,6.766,0,0,1-7.09-6.187c-.22-2.4-1.355-6.442-2.907-7.694-.189-.153-.389-.313-1.093-.226-2.489.3-9.491,3.424-17.267,9.4-7.989,6.146-10.974,10.863-11.287,12.426,1.966,4.773,9.613,5.243,9.691,5.246a6.751,6.751,0,0,1,6.506,7.264c-.044.562-4.234,56.562,2.959,84.737,6.278,24.588,28.964,26.414,29.192,26.43a6.75,6.75,0,0,1-.637,13.482c-.583-.02-55.4-1.154-79.148,19.776,9.764,18.9,23.3,39.062,30.1,41.427.052.018,5.681,1.734,23.841-13.065a232.536,232.536,0,0,0,19.017-17.559,6.75,6.75,0,0,1,11.429,6.344c-12.372,47.647-37.027,67.979-55.53,76.646-20.394,9.55-37.857,7.409-38.591,7.315a6.749,6.749,0,0,1-5.124-9.789c8.712-16.882-4.893-40.5-14.306-51.793-6.092-7.31-9-22.65-10.388-35.579-12.4,26.632-5.057,56.966-4.965,57.332a6.75,6.75,0,0,1-12.705,4.406C122.9,357.2,107.985,343.623,98.022,336.015Zm121.57-183.294h0Z"/><path d="M411.912,312.372a113.1,113.1,0,0,1-12.192-.664,6.75,6.75,0,1,1,1.455-13.422c37.287,4.044,63.882-14.5,74.071-23.181-37.756-37.833-89.422-43.611-89.961-43.667a6.75,6.75,0,0,1,1.373-13.431c2.5.254,61.6,6.741,103.175,52.865a6.75,6.75,0,0,1-.019,9.06C488.518,281.359,459.732,312.368,411.912,312.372Z"/><path d="M453.547,303.421a6.728,6.728,0,0,1-4.739-1.943c-9.8-9.661-24.416-23.915-26.539-25.665a6.75,6.75,0,0,1,7.715-11.075c.6.4,2.426,1.617,28.3,27.127a6.75,6.75,0,0,1-4.739,11.557Zm-31.225-27.57c.067.05.127.089.173.119C422.436,275.93,422.379,275.89,422.322,275.85Z"/><path d="M195.391,341.986a6.751,6.751,0,0,1-3.119-12.74l40-20.79a6.75,6.75,0,1,1,6.227,11.979l-40,20.79A6.729,6.729,0,0,1,195.391,341.986Z"/><path d="M292.709,277.1a6.751,6.751,0,0,1-3.866-12.288h0c.208-.146,20.87-14.813,27.629-37.345,9.184-30.606,62.567-17.109,68.623-15.471a6.75,6.75,0,0,1-3.527,13.031c-12.063-3.25-47.548-9.066-52.165,6.318-8.143,27.143-31.844,43.85-32.849,44.547A6.72,6.72,0,0,1,292.709,277.1Z"/><circle cx="266.773" cy="236.654" r="9.973"/><path d="M199.3,443.509A6.75,6.75,0,0,1,199,430.015c.428-.022,29.045-1.787,48.742-26.549,9.706-12.2,23.762-16.645,39.577-12.5,19.59,5.126,37.723,22.9,40.423,39.619a6.75,6.75,0,0,1-13.328,2.152c-1.86-11.528-16.119-24.945-30.512-28.712-7.311-1.912-17.68-2.1-25.6,7.849-23.688,29.78-57.284,31.569-58.7,31.632C199.5,443.507,199.4,443.509,199.3,443.509Z"/><path d="M292.715,406.775a6.859,6.859,0,0,1-1.229-.111,6.772,6.772,0,0,1-5.424-7.877c.241-1.322,6.358-32.438,45.353-38.11a29.029,29.029,0,0,0,20.22-12.729c10.074-14.432,13.029-40.634,7.53-66.755-7.176-34.087-26.4-60.653-26.6-60.917a6.752,6.752,0,0,1-1.266-3.285c-.059-.506-1.661-13.318-12.122-16.374-3.88-1.134-6.963-.135-12.078,1.727-7.709,2.807-18.265,6.649-33.755-2.373-16.447-9.581-18.406-20.843-18.11-26.7.446-8.843,6.491-16.958,15.775-21.178,13.807-6.276,30.946-13.349,31.118-13.419a6.75,6.75,0,1,1,5.145,12.48c-.169.07-17.092,7.053-30.677,13.228-4.669,2.123-7.688,5.789-7.879,9.568-.24,4.756,3.924,9.989,11.423,14.357,10.021,5.84,15.46,3.859,22.342,1.354,5.7-2.076,12.17-4.429,20.481-2,16.1,4.7,20.432,20.486,21.47,26.022,4.266,6.176,21.039,31.954,27.939,64.731,4.958,23.551,5.021,56.216-9.671,77.263-7.266,10.408-17.14,16.586-29.347,18.362-29.141,4.238-33.839,26.287-34.024,27.224A6.722,6.722,0,0,1,292.715,406.775Z"/><path d="M126.162,249.165c-36.139,0-48.984-22.006-50.727-33.7a6.75,6.75,0,1,1,13.352-1.99c.146.843,4.186,22.187,37.364,22.187h.434c27.491-.153,33.609-14.646,40.694-31.426a132.167,132.167,0,0,1,6.379-13.633c12.146-21.491,49.8-28.45,54.056-29.173a6.75,6.75,0,1,1,2.262,13.309c-9.813,1.684-36.933,9-44.565,22.507a120.48,120.48,0,0,0-5.693,12.241c-7.425,17.586-16.666,39.472-53.056,39.675Z"/><path d="M413.105,183.586c-14.075,0-25.172-10.028-36.746-20.486-10.848-9.8-23.143-20.912-40.975-28.465-41.255-17.478-71.768,8.286-72.071,8.549a6.75,6.75,0,0,1-8.828-10.213c1.5-1.295,37.258-31.483,86.165-10.768,19.928,8.442,33.7,20.883,44.76,30.88,16.37,14.791,24.183,21.049,37.821,14.259,7.64-3.8,8.3-8.2,8.521-9.646,1.63-10.794-11.835-26.412-16.681-31.031a6.751,6.751,0,0,1,9.316-9.771c2.432,2.319,23.673,23.219,20.713,42.818-.881,5.833-4.346,13.987-15.854,19.716A35.982,35.982,0,0,1,413.105,183.586Z"/></g></svg>